<?xml version="1.0" encoding="utf-8"?>
<!-- Generator: Adobe Illustrator 25.3.1, SVG Export Plug-In . SVG Version: 6.00 Build 0)  -->
<svg version="1.1" id="layer" xmlns="http://www.w3.org/2000/svg" xmlns:xlink="http://www.w3.org/1999/xlink" x="0px" y="0px"
	 viewBox="0 0 600 120.3" style="enable-background:new 0 0 600 120.3;" xml:space="preserve">
<style type="text/css">
	.st0{fill:#4D4D4D;}
	.st1{fill:#9B65C3;}
	.st2{fill:#BE63C5;}
	.st3{fill:#BF63C6;}
	.st4{fill:#3278B1;}
	.st5{fill:#3278B2;}
	.st6{fill:#45A4EC;}
	.st7{fill:#19BB7D;}
	.st8{fill:#08C7FB;}
	.st9{fill:#59F2F6;}
	.st10{fill:#FFA700;}
	.st11{fill:#DA3757;}
	.st12{fill:#D33C4E;}
	.st13{fill:#EE5A24;}
	.st14{fill:#8BDF55;}
	.st15{fill:#25C16F;}
	.st16{fill:#FFBB00;}
	.st17{fill:#FFA800;}
</style>
<g>
	<path class="st0" d="M146.2,3.1c-15.1,0-20.4,10.5-20.4,20.3v6h-3.2c-2.3,0-4.1,1.8-4.1,4.1c0,2.3,1.8,4.1,4.1,4.1h3.2V79
		c0,2.4,1.9,4.4,4.4,4.4c2.4,0,4.4-1.9,4.4-4.4V37.6h9.7c2.3,0,4.1-1.8,4.1-4.1c0-2.3-1.8-4.1-4.1-4.1h-9.7v-6c0-5.5,2-12,11.7-12
		c2.3,0,4.1-1.8,4.1-4.1C150.3,4.9,148.5,3.1,146.2,3.1"/>
	<path class="st0" d="M180.2,28c-6.5,0-12,2.7-15.1,7.1v-2.3c0-2.4-1.9-4.4-4.4-4.4c-2.4,0-4.4,1.9-4.4,4.4V79
		c0,2.4,1.9,4.4,4.4,4.4c2.4,0,4.4-1.9,4.4-4.4V53.5c0-10.7,5.7-17.1,15.1-17.1c2.3,0,4.2-1.9,4.2-4.2C184.5,29.9,182.6,28,180.2,28
		"/>
	<path class="st0" d="M233.7,50.7c0-2.5-0.4-9-4.2-14.4c-3.9-5.6-10-8.5-18.3-8.5c-15.4,0-24.2,10.2-24.2,28
		c0,18.4,8.8,28.2,25.3,28.2c11.1,0,17.2-5.5,18.3-6.6c0.7-0.7,1.5-1.6,1.5-3.1c0-2.2-1.8-4-4-4c-1.1,0-1.8,0.3-2.5,0.8
		c-3.2,2.4-6.9,4.8-13.2,4.8c-9.9,0-16.2-6.5-16.5-17.1h32.5C233.7,58.7,233.7,53.9,233.7,50.7 M211.2,35.8c9,0,13.7,5.1,13.9,15.1
		H196C196.8,41.2,202.2,35.8,211.2,35.8"/>
	<path class="st0" d="M263.1,51.4c-6.5-2.2-12.1-4.2-12.1-9c0-5.3,5.9-6.1,9.4-6.1c6.3,0,9.4,2.2,11.9,4.6c0.8,0.8,1.8,1.2,2.9,1.2
		c2.2,0,4-1.8,4-4c0-1.2-0.5-2-0.9-2.6c-3.7-4.9-10-7.6-17.9-7.6c-11.2,0-18.1,5.6-18.1,14.5c0,10.9,9.6,14.2,18,17
		c6.4,2.2,11.9,4,11.9,8.7c0,6.4-7.1,7.4-11.4,7.4c-5.8,0-10.3-1.8-14-5.4c-1.1-1.1-2.3-1.3-3-1.3c-2.2,0-4,1.8-4,4
		c0,0.9,0.3,1.6,1,2.6c3.3,4.2,10.8,8.5,20,8.5c12.6,0,20.1-5.9,20.1-15.7C280.9,57.6,271.5,54.3,263.1,51.4"/>
	<path class="st0" d="M315,27.8c-6,0-11.4,2.4-14.4,6.2V4.4c0-2.4-1.9-4.4-4.4-4.4c-2.4,0-4.4,1.9-4.4,4.4v74.7
		c0,2.4,1.9,4.4,4.4,4.4c2.4,0,4.4-1.9,4.4-4.4V51c0-10.1,4.9-15.2,14.4-15.2c9.2,0,13,4.2,13,14.4v28.9c0,2.4,1.9,4.4,4.4,4.4
		c2.4,0,4.4-1.9,4.4-4.4V48.7C336.6,34.8,329.3,27.8,315,27.8"/>
	<path class="st0" d="M409.5,28.5c-1.9,0-3.4,1.1-4.1,2.9L392.9,67l-10.2-35.6c-0.4-1.4-1.9-2.9-4.1-2.9s-3.7,1.5-4.1,2.9
		l-10.2,35.5l-12.5-35.6c-0.7-1.8-2.2-2.8-4.1-2.8c-2.4,0-4.4,1.9-4.4,4.4c0,0.6,0.1,1.2,0.4,1.8l16.7,45.9c0.7,1.8,2.2,2.8,4.1,2.8
		c2,0,3.7-1.3,4.2-3.1l9.8-33.7l9.8,33.7c0.5,1.8,2.3,3.1,4.2,3.1c1.9,0,3.4-1.1,4.1-2.9l16.7-45.9c0.3-0.6,0.4-1.3,0.4-1.9
		C413.8,30.4,411.9,28.5,409.5,28.5"/>
	<path class="st0" d="M441.3,27.8c-15.9,0-24.6,10-24.6,28c0,18.2,8.7,28.2,24.6,28.2s24.6-10,24.6-28.2
		C465.9,37.7,457.1,27.8,441.3,27.8 M441.3,76c-10.6,0-15.8-6.6-15.8-20.1c0-13.3,5.3-20,15.8-20s15.8,6.7,15.8,20
		C457.1,69.4,451.9,76,441.3,76"/>
	<path class="st0" d="M499.7,28c-6.5,0-12,2.7-15.1,7.1v-2.3c0-2.4-1.9-4.4-4.4-4.4c-2.4,0-4.4,1.9-4.4,4.4V79
		c0,2.4,1.9,4.4,4.4,4.4c2.4,0,4.4-1.9,4.4-4.4V53.5c0-10.7,5.7-17.1,15.1-17.1c2.3,0,4.2-1.9,4.2-4.2S502,28,499.7,28"/>
	<path class="st0" d="M532.9,50.8L551,36.3c1.5-1.2,1.7-2.7,1.7-3.5c0-2.4-1.9-4.4-4.4-4.4c-0.7,0-1.9,0.1-3,1.1l-25.7,21V4.4
		c0-2.4-1.9-4.4-4.4-4.4c-2.4,0-4.4,1.9-4.4,4.4v74.7c0,2.4,1.9,4.4,4.4,4.4c2.4,0,4.4-1.9,4.4-4.4v-18l6.1-4.9l19.7,25.3l0,0
		c1.1,1.3,2.3,2,3.7,2c2.4,0,4.4-1.9,4.4-4.4c0-0.7-0.1-1.7-0.9-2.7L532.9,50.8z"/>
	<path class="st0" d="M582.2,51.4c-6.5-2.2-12.1-4.2-12.1-9c0-5.3,5.9-6.1,9.4-6.1c6.3,0,9.4,2.2,11.9,4.6c0.8,0.8,1.8,1.2,2.9,1.2
		c2.2,0,4-1.8,4-4c0-1.3-0.7-2.2-0.9-2.6c-3.7-4.9-10-7.6-17.9-7.6c-11.2,0-18.1,5.6-18.1,14.5c0,10.9,9.6,14.2,18,17
		c6.4,2.2,11.9,4,11.9,8.7c0,6.4-7.1,7.4-11.4,7.4c-5.8,0-10.3-1.8-14-5.4c-1.1-1.1-2.2-1.3-3-1.3c-2.2,0-4,1.8-4,4
		c0,0.9,0.3,1.6,1,2.6c3.3,4.2,10.8,8.5,20,8.5c12.6,0,20.1-5.9,20.1-15.7C600,57.6,590.6,54.3,582.2,51.4"/>
	<path class="st1" d="M0.6,76.6C2.3,87.7,7.5,97.7,15,105.2l17.5-17.5c0-17.7,9.2-34.9,25.6-44.4L0.6,76.6z"/>
	<path class="st1" d="M32.5,87.7c-8.7,0-17.5-2.2-25.6-6.9c-2.2-1.3-4.3-2.7-6.3-4.3C2.3,87.6,7.5,97.6,15,105.1L32.5,87.7z"/>
	<path class="st2" d="M32.5,87.7L32.5,87.7L15,105.2c7.6,7.6,17.5,12.8,28.6,14.4l33.2-57.5C67.4,78.5,50.2,87.7,32.5,87.7"/>
	<path class="st3" d="M39.4,113.4c-4.7-8.1-6.9-16.9-6.9-25.6L15,105.3c7.6,7.6,17.5,12.8,28.6,14.4
		C42.1,117.7,40.7,115.6,39.4,113.4"/>
	<path class="st4" d="M97.7,20.5L58.2,43.4c-16.4,9.5-35.9,8.8-51.2,0C2.6,50.9,0.1,59.7,0.1,69c0,2.6,0.2,5.1,0.6,7.6
		c2,1.6,4.1,3,6.3,4.3c8.1,4.7,16.9,6.9,25.6,6.9l66.2-66.2C98.4,21.2,98.1,20.8,97.7,20.5"/>
	<path class="st5" d="M6.9,80.9c8.1,4.7,16.9,6.9,25.6,6.9c0-17.7,9.2-34.9,25.6-44.4L0.5,76.6C2.6,78.1,4.7,79.6,6.9,80.9"/>
	<path class="st6" d="M6.9,43.4C2.5,50.9,0,59.7,0,69c0,2.6,0.2,5.1,0.6,7.6l57.6-33.2C41.7,52.8,22.2,52.2,6.9,43.4"/>
	<path class="st7" d="M98.8,21.5c-0.3-0.3-0.7-0.7-1.1-1c-0.5-0.4-1-0.8-1.6-1.1c-1.9-1.1-4.1-1.7-6.4-1.7H51.3
		c-19,0-35.5,10.3-44.4,25.6c15.3,8.8,34.8,9.5,51.2,0C41.7,52.8,32.5,70,32.5,87.7c17.7,0,34.9-9.2,44.4-25.6l22.8-39.5
		C99.4,22.2,99.1,21.8,98.8,21.5"/>
	<path class="st8" d="M58.2,43.4l39.5-22.8c-0.5-0.4-1-0.8-1.6-1.1L6.9,43.4C22.2,52.2,41.7,52.8,58.2,43.4"/>
	<path class="st9" d="M89.7,17.7H51.3c-19,0-35.5,10.3-44.4,25.6l89.2-23.9C94.2,18.4,92.1,17.7,89.7,17.7"/>
	<path class="st10" d="M32.5,87.7"/>
	<path class="st11" d="M76.9,62.1l22.8-39.5c-0.3-0.4-0.6-0.7-1-1.1L32.5,87.7c0,8.7,2.2,17.5,6.9,25.6c1.3,2.2,2.7,4.3,4.3,6.3
		c2.5,0.4,5,0.6,7.6,0.6c9.3,0,18.1-2.5,25.6-6.9C68.1,98,67.4,78.5,76.9,62.1"/>
	<path class="st12" d="M32.5,87.7L32.5,87.7c0,8.7,2.2,17.5,6.9,25.6c1.3,2.2,2.7,4.3,4.3,6.3l33.2-57.5
		C67.4,78.5,50.2,87.7,32.5,87.7"/>
	<path class="st13" d="M76.9,62.1l-33.2,57.6c2.5,0.4,5,0.6,7.6,0.6c9.3,0,18.1-2.5,25.6-6.9C68.1,98,67.4,78.5,76.9,62.1"/>
	<path class="st14" d="M100.8,24.2c-0.3-0.6-0.7-1.1-1.1-1.6c-0.3-0.4-0.6-0.7-1-1.1c-0.3-0.3-0.7-0.7-1.1-1L58.2,43.4
		c-16.4,9.5-25.6,26.7-25.6,44.4c17.7,0,34.9-9.2,44.4-25.6c-9.5,16.4-8.8,35.9,0,51.2c15.3-8.9,25.6-25.4,25.6-44.4V30.6
		C102.5,28.2,101.9,26,100.8,24.2"/>
	<path class="st15" d="M97.7,20.5L58.2,43.4c-16.4,9.5-25.6,26.7-25.6,44.4l66.2-66.2C98.4,21.2,98.1,20.8,97.7,20.5"/>
	<path class="st14" d="M32.5,87.7c17.7,0,34.9-9.2,44.4-25.6l22.8-39.5c-0.3-0.4-0.6-0.7-1-1.1L32.5,87.7z"/>
	<path class="st16" d="M99.7,22.6L76.9,62.1c-9.5,16.4-8.8,35.9,0,51.2l23.9-89.2C100.5,23.6,100.1,23.1,99.7,22.6"/>
	<path class="st17" d="M76.9,113.4c15.3-8.9,25.6-25.4,25.6-44.4V30.6c0-2.3-0.6-4.5-1.7-6.4L76.9,113.4z"/>
</g>
</svg>
