<?xml version="1.0" encoding="utf-8"?>
<!-- Generator: Adobe Illustrator 25.3.1, SVG Export Plug-In . SVG Version: 6.00 Build 0)  -->
<svg version="1.1" id="Layer_1" xmlns="http://www.w3.org/2000/svg" xmlns:xlink="http://www.w3.org/1999/xlink" x="0px" y="0px"
	 viewBox="0 0 206 40" style="enable-background:new 0 0 206 40;" xml:space="preserve">
<style type="text/css">
	.st0{fill-rule:evenodd;clip-rule:evenodd;}
	.st1{filter:url(#Adobe_OpacityMaskFilter);}
	.st2{fill-rule:evenodd;clip-rule:evenodd;fill:#FFFFFF;}
	.st3{mask:url(#ce0b31827b_1_);fill-rule:evenodd;clip-rule:evenodd;}
	.st4{filter:url(#Adobe_OpacityMaskFilter_1_);}
	.st5{mask:url(#ejucd5gp8d_1_);fill-rule:evenodd;clip-rule:evenodd;fill:#FF5C5C;}
	.st6{fill-rule:evenodd;clip-rule:evenodd;fill:#CB3737;}
	.st7{fill-rule:evenodd;clip-rule:evenodd;fill:#F84848;}
	.st8{filter:url(#Adobe_OpacityMaskFilter_2_);}
	.st9{mask:url(#uym5sp2j4f_1_);fill-rule:evenodd;clip-rule:evenodd;fill:#CB3737;}
</style>
<g>
	<g>
		<g>
			<path class="st0" d="M58,25.6c0.2,0.4,0.3,0.7,0.5,1.1c0.1-0.4,0.3-0.8,0.5-1.1c0.2-0.4,0.3-0.7,0.5-1.1l6.8-12.7
				c0.1-0.2,0.2-0.3,0.3-0.4c0.1-0.1,0.2-0.2,0.3-0.2c0.1,0,0.2-0.1,0.4-0.1c0.1,0,0.3,0,0.5,0h3.2v22.9h-3.8V19.3
				c0-0.3,0-0.6,0-0.9c0-0.3,0-0.7,0.1-1l-6.9,13c-0.2,0.3-0.4,0.5-0.6,0.7c-0.3,0.2-0.5,0.2-0.9,0.2h-0.6c-0.3,0-0.6-0.1-0.9-0.2
				c-0.3-0.2-0.5-0.4-0.6-0.7l-7-13c0,0.3,0.1,0.7,0.1,1c0,0.3,0,0.6,0,0.9v14.8H46V11.2h3.2c0.2,0,0.4,0,0.5,0c0.1,0,0.3,0,0.4,0.1
				c0.1,0,0.2,0.1,0.3,0.2c0.1,0.1,0.2,0.2,0.3,0.4l6.8,12.7C57.7,24.9,57.9,25.3,58,25.6 M79.7,31.6c0.4,0,0.8,0,1.1-0.1
				c0.3-0.1,0.7-0.2,1-0.3c0.3-0.1,0.6-0.3,0.9-0.5c0.3-0.2,0.6-0.5,0.8-0.8v-2.7c-1.1,0-2.1,0.1-2.9,0.2c-0.8,0.1-1.4,0.3-1.8,0.5
				c-0.5,0.2-0.8,0.5-1,0.8c-0.2,0.3-0.3,0.6-0.3,1c0,0.7,0.2,1.2,0.6,1.5C78.6,31.5,79.1,31.6,79.7,31.6z M87.3,34.1h-1.8
				c-0.4,0-0.7-0.1-0.9-0.2c-0.2-0.1-0.4-0.3-0.5-0.7l-0.3-1.2c-0.4,0.4-0.8,0.7-1.2,1c-0.4,0.3-0.8,0.5-1.2,0.7
				c-0.4,0.2-0.9,0.3-1.3,0.4c-0.5,0.1-1,0.1-1.6,0.1c-0.7,0-1.3-0.1-1.9-0.3c-0.6-0.2-1.1-0.5-1.5-0.8s-0.7-0.8-1-1.4
				c-0.2-0.5-0.3-1.2-0.3-1.9c0-0.6,0.2-1.2,0.5-1.8c0.3-0.6,0.9-1.1,1.6-1.6c0.8-0.5,1.7-0.9,3-1.2c1.2-0.3,2.8-0.5,4.6-0.5v-1
				c0-1.1-0.2-1.9-0.7-2.4c-0.5-0.5-1.1-0.8-2-0.8c-0.6,0-1.2,0.1-1.6,0.2c-0.4,0.1-0.8,0.3-1.1,0.5c-0.3,0.2-0.6,0.4-0.9,0.5
				c-0.3,0.1-0.6,0.2-0.9,0.2c-0.3,0-0.5-0.1-0.7-0.2c-0.2-0.1-0.3-0.3-0.5-0.5l-0.7-1.2c1.9-1.7,4.1-2.6,6.8-2.6
				c0.9,0,1.8,0.2,2.5,0.5c0.7,0.3,1.4,0.7,1.9,1.3c0.5,0.6,0.9,1.2,1.2,2c0.3,0.8,0.4,1.6,0.4,2.5C87.3,23.8,87.3,34.1,87.3,34.1z"
				/>
			<g transform="translate(-168 -44) translate(168 44) translate(88.5 17.297)">
				<defs>
					<filter id="Adobe_OpacityMaskFilter" filterUnits="userSpaceOnUse" x="0.5" y="0.3" width="15.5" height="22.2">
						<feColorMatrix  type="matrix" values="1 0 0 0 0  0 1 0 0 0  0 0 1 0 0  0 0 0 1 0"/>
					</filter>
				</defs>
				<mask maskUnits="userSpaceOnUse" x="0.5" y="0.3" width="15.5" height="22.2" id="ce0b31827b_1_">
					<g class="st1">
						<path id="_x34_03mr2fvsa_1_" class="st2" d="M0.5,0.3H16v22.2H0.5V0.3z"/>
					</g>
				</mask>
				<path class="st3" d="M7.7,8.3c0.5,0,0.9-0.1,1.3-0.2c0.4-0.1,0.7-0.3,0.9-0.5c0.2-0.2,0.4-0.5,0.5-0.8c0.1-0.3,0.2-0.7,0.2-1.1
					c0-0.8-0.2-1.4-0.7-1.9C9.4,3.2,8.6,3,7.7,3C6.7,3,6,3.2,5.5,3.7C5,4.2,4.8,4.8,4.8,5.6C4.8,6,4.9,6.3,5,6.7
					C5.1,7,5.3,7.3,5.5,7.5c0.2,0.2,0.5,0.4,0.9,0.6C6.8,8.2,7.2,8.3,7.7,8.3 M12,17.5c0-0.3-0.1-0.6-0.3-0.8
					c-0.2-0.2-0.4-0.4-0.8-0.5c-0.3-0.1-0.7-0.2-1.1-0.2c-0.4-0.1-0.9-0.1-1.4-0.1H6.8c-0.5,0-1-0.1-1.5-0.2
					c-0.4,0.2-0.8,0.5-1.1,0.9c-0.3,0.3-0.4,0.7-0.4,1.1c0,0.3,0.1,0.6,0.2,0.8c0.1,0.2,0.4,0.5,0.7,0.6c0.3,0.2,0.7,0.3,1.2,0.4
					c0.5,0.1,1.1,0.1,1.8,0.1c0.7,0,1.4-0.1,1.9-0.2c0.5-0.1,1-0.3,1.3-0.5c0.3-0.2,0.6-0.4,0.8-0.7C11.9,18.1,12,17.8,12,17.5
					 M7.7,0.3c0.7,0,1.4,0.1,2,0.2c0.6,0.1,1.2,0.4,1.7,0.6H16v1.5c0,0.2-0.1,0.4-0.2,0.6c-0.1,0.1-0.3,0.2-0.6,0.3l-1.5,0.3
					c0.1,0.3,0.2,0.6,0.2,0.9C14,4.9,14,5.2,14,5.5c0,0.8-0.2,1.5-0.5,2.2c-0.3,0.6-0.8,1.2-1.3,1.7c-0.6,0.5-1.2,0.8-2,1.1
					c-0.8,0.2-1.6,0.4-2.5,0.4c-0.6,0-1.2-0.1-1.8-0.2c-0.5,0.3-0.8,0.7-0.8,1c0,0.3,0.2,0.6,0.4,0.7c0.3,0.2,0.7,0.3,1.2,0.3
					c0.5,0.1,1,0.1,1.7,0.1s1.3,0,1.9,0.1c0.7,0.1,1.3,0.1,1.9,0.3c0.6,0.1,1.2,0.3,1.7,0.6c0.5,0.3,0.9,0.7,1.2,1.2
					c0.3,0.5,0.5,1.1,0.5,1.9c0,0.7-0.2,1.4-0.5,2.1c-0.4,0.7-0.9,1.3-1.5,1.8S12,21.7,11,22c-1,0.3-2.1,0.5-3.3,0.5
					c-1.2,0-2.3-0.1-3.2-0.4c-0.9-0.2-1.7-0.6-2.3-1c-0.6-0.4-1-0.9-1.3-1.4c-0.3-0.5-0.4-1.1-0.4-1.6c0-0.8,0.2-1.4,0.7-1.9
					c0.5-0.5,1.1-0.9,1.9-1.2c-0.4-0.2-0.7-0.5-1-0.9c-0.2-0.4-0.4-0.9-0.4-1.4c0-0.2,0-0.5,0.1-0.8c0.1-0.3,0.2-0.5,0.4-0.8
					c0.2-0.3,0.4-0.5,0.7-0.7c0.3-0.2,0.6-0.4,0.9-0.6c-0.8-0.4-1.5-1-1.9-1.8S1.2,6.5,1.2,5.5c0-0.8,0.2-1.5,0.5-2.2
					C2,2.7,2.5,2.1,3.1,1.7c0.6-0.5,1.3-0.8,2-1.1C5.9,0.4,6.7,0.3,7.7,0.3"/>
			</g>
			<path class="st0" d="M106.3,34.1V17.8h2.4c0.5,0,0.8,0.2,1,0.7l0.3,1.2c0.3-0.3,0.6-0.6,0.9-0.9s0.6-0.5,1-0.7
				c0.4-0.2,0.7-0.3,1.1-0.5c0.4-0.1,0.9-0.2,1.3-0.2c1,0,1.9,0.3,2.5,0.8c0.7,0.6,1.2,1.3,1.5,2.2c0.3-0.5,0.6-1,0.9-1.4
				c0.4-0.4,0.8-0.7,1.3-0.9s0.9-0.4,1.4-0.5c0.5-0.1,1-0.2,1.5-0.2c0.9,0,1.7,0.1,2.4,0.4c0.7,0.3,1.3,0.7,1.8,1.2
				c0.5,0.5,0.8,1.2,1.1,1.9c0.2,0.8,0.4,1.6,0.4,2.6v10.3h-3.9V23.7c0-1-0.2-1.8-0.7-2.3c-0.5-0.5-1.1-0.8-2-0.8
				c-0.4,0-0.8,0.1-1.1,0.2c-0.3,0.1-0.6,0.3-0.9,0.6c-0.3,0.3-0.5,0.6-0.6,1c-0.1,0.4-0.2,0.8-0.2,1.3v10.3h-3.9V23.7
				c0-1.1-0.2-1.9-0.7-2.4c-0.4-0.5-1.1-0.7-1.9-0.7c-0.6,0-1.1,0.1-1.6,0.4c-0.5,0.3-0.9,0.7-1.4,1.1v11.9L106.3,34.1L106.3,34.1z
				 M137.5,31.6c0.4,0,0.8,0,1.1-0.1c0.3-0.1,0.7-0.2,1-0.3c0.3-0.1,0.6-0.3,0.9-0.5c0.3-0.2,0.6-0.5,0.8-0.8v-2.7
				c-1.1,0-2.1,0.1-2.9,0.2c-0.8,0.1-1.4,0.3-1.8,0.5c-0.5,0.2-0.8,0.5-1,0.8c-0.2,0.3-0.3,0.6-0.3,1c0,0.7,0.2,1.2,0.6,1.5
				C136.3,31.5,136.8,31.6,137.5,31.6z M145.1,34.1h-1.8c-0.4,0-0.7-0.1-0.9-0.2c-0.2-0.1-0.4-0.3-0.5-0.7l-0.3-1.2
				c-0.4,0.4-0.8,0.7-1.2,1c-0.4,0.3-0.8,0.5-1.2,0.7c-0.4,0.2-0.9,0.3-1.3,0.4c-0.5,0.1-1,0.1-1.6,0.1c-0.7,0-1.3-0.1-1.9-0.3
				c-0.6-0.2-1.1-0.5-1.5-0.8c-0.4-0.4-0.7-0.8-1-1.4s-0.3-1.2-0.3-1.9c0-0.6,0.2-1.2,0.5-1.8c0.3-0.6,0.9-1.1,1.6-1.6
				c0.7-0.5,1.7-0.9,3-1.2c1.2-0.3,2.8-0.5,4.6-0.5v-1c0-1.1-0.2-1.9-0.7-2.4c-0.5-0.5-1.1-0.8-2-0.8c-0.6,0-1.2,0.1-1.6,0.2
				c-0.4,0.1-0.8,0.3-1.1,0.5c-0.3,0.2-0.6,0.4-0.9,0.5c-0.3,0.1-0.6,0.2-0.9,0.2c-0.3,0-0.5-0.1-0.7-0.2c-0.2-0.1-0.3-0.3-0.5-0.5
				l-0.7-1.2c1.9-1.7,4.1-2.6,6.8-2.6c0.9,0,1.8,0.2,2.5,0.5c0.7,0.3,1.4,0.7,1.9,1.3c0.5,0.6,0.9,1.2,1.2,2
				c0.3,0.8,0.4,1.6,0.4,2.5L145.1,34.1L145.1,34.1z M151.1,32.7h10.6v1.4h-12.2V11.7h1.6V32.7z M168,33.2c0.6,0,1.2-0.1,1.7-0.2
				s1-0.3,1.4-0.6c0.4-0.2,0.8-0.5,1.2-0.8s0.8-0.7,1.1-1.1v-4.1c-1.5,0-2.8,0.2-3.9,0.3c-1.1,0.2-2,0.4-2.7,0.8
				c-0.7,0.3-1.2,0.7-1.6,1.1c-0.3,0.4-0.5,0.9-0.5,1.5c0,0.5,0.1,1,0.3,1.4s0.4,0.7,0.7,1c0.3,0.2,0.6,0.4,1,0.5
				C167.2,33.2,167.6,33.2,168,33.2z M174.4,34.1c-0.3,0-0.5-0.1-0.6-0.4l-0.2-2c-0.4,0.4-0.9,0.8-1.3,1.1c-0.4,0.3-0.9,0.6-1.3,0.9
				c-0.5,0.2-1,0.4-1.5,0.5c-0.5,0.1-1.1,0.2-1.8,0.2c-0.5,0-1.1-0.1-1.6-0.2c-0.5-0.2-1-0.4-1.3-0.7c-0.4-0.3-0.7-0.7-0.9-1.3
				c-0.2-0.5-0.4-1.1-0.4-1.8c0-0.7,0.2-1.3,0.6-1.9c0.4-0.6,1-1.1,1.8-1.5c0.8-0.4,1.8-0.8,3.1-1c1.3-0.3,2.8-0.4,4.6-0.4v-1.6
				c0-1.5-0.3-2.6-0.9-3.4c-0.6-0.8-1.6-1.2-2.8-1.2c-0.8,0-1.4,0.1-1.9,0.3c-0.5,0.2-1,0.4-1.4,0.7c-0.4,0.3-0.7,0.5-0.9,0.7
				c-0.2,0.2-0.4,0.3-0.6,0.3c-0.2,0-0.4-0.1-0.5-0.3l-0.3-0.5c0.8-0.8,1.7-1.4,2.6-1.9c0.9-0.4,1.9-0.6,3.1-0.6
				c0.8,0,1.6,0.1,2.2,0.4c0.6,0.3,1.2,0.7,1.6,1.2c0.4,0.5,0.7,1.1,0.9,1.8s0.3,1.5,0.3,2.4v10.3L174.4,34.1L174.4,34.1z
				 M185.9,19.3c-1,0-2,0.3-2.8,0.8c-0.8,0.5-1.6,1.3-2.3,2.2v8.3c0.6,0.9,1.3,1.5,2,1.9c0.7,0.4,1.6,0.5,2.5,0.5
				c0.9,0,1.7-0.2,2.4-0.5c0.7-0.3,1.3-0.8,1.8-1.4c0.5-0.6,0.8-1.4,1.1-2.2c0.2-0.9,0.4-1.8,0.4-2.8c0-2.3-0.4-4.1-1.3-5.2
				C188.7,19.8,187.5,19.3,185.9,19.3L185.9,19.3z M179.2,34.1V11h1.5l0,10c0.7-0.9,1.5-1.7,2.4-2.2c0.9-0.5,2-0.8,3.1-0.8
				c1.9,0,3.4,0.7,4.5,2c1.1,1.3,1.6,3.3,1.6,6c0,1.1-0.1,2.2-0.5,3.2c-0.3,1-0.7,1.9-1.3,2.6c-0.6,0.7-1.3,1.3-2.2,1.7
				c-0.9,0.4-1.8,0.6-2.9,0.6c-1.1,0-2-0.2-2.8-0.6c-0.8-0.4-1.5-1.1-2-1.9l-0.1,1.9c0,0.3-0.2,0.4-0.4,0.4H179.2L179.2,34.1z
				 M204.4,20.3c-0.1,0.1-0.2,0.2-0.3,0.2c-0.1,0-0.3-0.1-0.5-0.2c-0.2-0.1-0.4-0.3-0.7-0.4c-0.3-0.2-0.7-0.3-1.1-0.4
				s-1-0.2-1.6-0.2c-0.6,0-1.1,0.1-1.6,0.2c-0.5,0.2-0.9,0.4-1.2,0.7c-0.3,0.3-0.6,0.6-0.8,1c-0.2,0.4-0.3,0.7-0.3,1.1
				c0,0.5,0.1,0.9,0.4,1.2c0.3,0.3,0.6,0.6,1,0.8c0.4,0.2,0.9,0.4,1.4,0.6c0.5,0.2,1.1,0.3,1.6,0.5c0.6,0.2,1.1,0.4,1.6,0.6
				c0.5,0.2,1,0.5,1.4,0.8c0.4,0.3,0.7,0.7,1,1.1c0.3,0.4,0.4,1,0.4,1.6c0,0.7-0.1,1.3-0.4,1.9s-0.6,1.1-1.1,1.5s-1,0.8-1.7,1
				c-0.7,0.3-1.5,0.4-2.3,0.4c-1.1,0-2.1-0.2-2.9-0.5c-0.8-0.4-1.5-0.8-2.2-1.4l0.4-0.5c0.1-0.1,0.1-0.1,0.2-0.2
				c0.1,0,0.2-0.1,0.3-0.1c0.1,0,0.3,0.1,0.5,0.3c0.2,0.2,0.5,0.4,0.8,0.5c0.3,0.2,0.7,0.4,1.2,0.5c0.5,0.2,1.1,0.3,1.8,0.3
				c0.7,0,1.3-0.1,1.8-0.3c0.5-0.2,0.9-0.4,1.3-0.8c0.3-0.3,0.6-0.7,0.8-1.1c0.2-0.4,0.3-0.9,0.3-1.4c0-0.5-0.1-1-0.4-1.3
				c-0.3-0.3-0.6-0.6-1-0.9c-0.4-0.2-0.9-0.4-1.4-0.6c-0.5-0.2-1.1-0.3-1.6-0.5c-0.6-0.2-1.1-0.4-1.6-0.6c-0.5-0.2-1-0.5-1.4-0.8
				c-0.4-0.3-0.7-0.7-1-1.1c-0.3-0.4-0.4-1-0.4-1.6c0-0.6,0.1-1.1,0.4-1.6c0.2-0.5,0.6-1,1-1.4c0.4-0.4,1-0.7,1.6-0.9
				s1.4-0.4,2.2-0.4c1,0,1.8,0.1,2.6,0.4c0.7,0.3,1.4,0.7,2.1,1.3L204.4,20.3L204.4,20.3z"/>
			<g transform="translate(-168 -44) translate(168 44) translate(0 11.297)">
				<defs>
					<filter id="Adobe_OpacityMaskFilter_1_" filterUnits="userSpaceOnUse" x="0" y="0.1" width="16.7" height="22.7">
						<feColorMatrix  type="matrix" values="1 0 0 0 0  0 1 0 0 0  0 0 1 0 0  0 0 0 1 0"/>
					</filter>
				</defs>
				<mask maskUnits="userSpaceOnUse" x="0" y="0.1" width="16.7" height="22.7" id="ejucd5gp8d_1_">
					<g class="st4">
						<path id="_x30_1b1yp57jc_1_" class="st2" d="M0,0.1h16.7v22.7H0V0.1z"/>
					</g>
				</mask>
				<path class="st5" d="M12.6,0.3L0.1,22c-0.2,0.3,0.1,0.8,0.5,0.8h6c0.4,0,0.7-0.2,0.9-0.5l9.1-15.8c0.2-0.3,0.2-0.7,0-1l-3-5.1
					C13.3,0,12.8,0,12.6,0.3"/>
			</g>
			<path class="st6" d="M31.5,22.5l-3,5.1c-0.2,0.3-0.2,0.7,0,1l2.8,4.9c0.2,0.3,0.5,0.5,0.9,0.5l6,0c0.4,0,0.7-0.4,0.5-0.8
				l-6.3-10.8C32.2,22.1,31.7,22.1,31.5,22.5"/>
			<path class="st7" d="M25.2,11.6l-9.3,16c-0.2,0.3-0.2,0.7,0,1l3,5.1c0.2,0.3,0.7,0.3,0.9,0l9.3-16c0.2-0.3,0.2-0.7,0-1l-3-5.1
				C25.9,11.3,25.4,11.3,25.2,11.6"/>
			<g transform="translate(-168 -44) translate(168 44) translate(15.5 .297)">
				<defs>
					<filter id="Adobe_OpacityMaskFilter_2_" filterUnits="userSpaceOnUse" x="0.3" y="0.2" width="7.1" height="11.8">
						<feColorMatrix  type="matrix" values="1 0 0 0 0  0 1 0 0 0  0 0 1 0 0  0 0 0 1 0"/>
					</filter>
				</defs>
				<mask maskUnits="userSpaceOnUse" x="0.3" y="0.2" width="7.1" height="11.8" id="uym5sp2j4f_1_">
					<g class="st8">
						<path id="_x32_rbj9qpvte_1_" class="st2" d="M0.3,0.2h7.1V12H0.3V0.2z"/>
					</g>
				</mask>
				<path class="st9" d="M7.3,5.6l-3-5.1c-0.2-0.3-0.7-0.3-0.9,0l-3,5.1c-0.2,0.3-0.2,0.7,0,1l3,5.1c0.2,0.3,0.7,0.3,0.9,0l3-5.1
					C7.5,6.3,7.5,5.9,7.3,5.6"/>
			</g>
		</g>
	</g>
</g>
</svg>
