<svg id="Layer_1" data-name="Layer 1" xmlns="http://www.w3.org/2000/svg" viewBox="0 0 50 25.09"><polygon points="20.12 9.64 13.96 9.64 13.96 6.53 18.4 6.53 18.4 4.82 13.96 4.82 13.96 1.71 20.12 1.71 20.12 0 12.15 0 12.15 11.35 20.12 11.35 20.12 9.64"/><path d="M20,14.57a3.4,3.4,0,0,0-2.6-.82h-1.9a3.39,3.39,0,0,0-2.6.82,3.23,3.23,0,0,0-.8,2.58v4.54a3.27,3.27,0,0,0,.8,2.59,3.43,3.43,0,0,0,2.6.81h1.9a3.44,3.44,0,0,0,2.6-.81,3.27,3.27,0,0,0,.8-2.59V17.15A3.26,3.26,0,0,0,20,14.57Zm-1,6.78c0,1-.07,1.41-.34,1.7s-.59.34-1.7.34h-1c-1.11,0-1.43-.07-1.7-.34s-.34-.65-.34-1.7V17.5c0-1.07.07-1.42.34-1.71s.59-.34,1.7-.34h1c1.11,0,1.43.07,1.69.34s.35.64.35,1.71v3.85Z"/><path d="M29.52.82A3.38,3.38,0,0,0,26.92,0h-5V11.35h5a3.38,3.38,0,0,0,2.6-.82,3.27,3.27,0,0,0,.8-2.59V3.4A3.24,3.24,0,0,0,29.52.82Zm-1,6.78c0,1.06-.07,1.41-.34,1.7s-.59.34-1.7.34H23.76V1.71h2.71c1.11,0,1.43.07,1.7.33s.34.65.34,1.71Z"/><polygon points="38.89 1.71 38.89 0 31.71 0 31.71 1.71 34.39 1.71 34.39 9.64 31.71 9.64 31.71 11.35 38.89 11.35 38.89 9.64 36.21 9.64 36.21 1.71 38.89 1.71"/><path d="M48.62,5.1,46.49.5a.79.79,0,0,0-.74-.5H43.48a.81.81,0,0,0-.75.5L40.61,5.1a2,2,0,0,0-.19.8v5.45h1.82V8.23H47v3.12H48.8V5.9A2,2,0,0,0,48.62,5.1ZM47,6.52H42.24V5.79l1.92-4.08h.9L47,5.79Z"/><polygon points="29.2 19.43 24.45 13.75 22.63 13.75 22.63 25.09 24.45 25.09 24.45 16.29 29.2 21.98 29.2 25.09 31.01 25.09 31.01 13.75 29.2 13.75 29.2 19.43"/><path d="M46.18,18.61c-1.29-.56-2.66-1.07-2.66-2a1.15,1.15,0,0,1,1.1-1.18h2.5a1.1,1.1,0,0,1,1.1,1.1v.3H50v-.24a2.87,2.87,0,0,0-2.88-2.86H44.69a2.88,2.88,0,0,0-2.87,2.88c0,2,2.14,2.87,3.82,3.6,1.29.56,2.65,1.07,2.65,2a1.15,1.15,0,0,1-1.1,1.18H44.7a1.1,1.1,0,0,1-1.1-1.1V22H41.82v.24a2.87,2.87,0,0,0,2.88,2.86h2.42A2.88,2.88,0,0,0,50,22.21C50,20.18,47.85,19.34,46.18,18.61Z"/><polygon points="36.43 19.36 41.27 13.75 38.88 13.75 34.97 18.57 34.97 13.75 33.15 13.75 33.15 25.09 34.97 25.09 34.97 20.27 39.05 25.09 41.49 25.09 36.43 19.36"/><polyline points="8.38 2.87 5.83 6.53 4.36 6.53 1.82 2.87 1.82 11.35 0 11.35 0 0 1.82 0 5.1 4.71 8.38 0 10.2 0 10.2 11.35 8.38 11.35 8.38 2.87"/><polyline points="8.38 16.62 5.83 20.27 4.36 20.27 1.82 16.62 1.82 25.09 0 25.09 0 13.75 1.82 13.75 5.1 18.46 8.38 13.75 10.2 13.75 10.2 25.09 8.38 25.09 8.38 16.62"/></svg>