<svg id="Layer_1" data-name="Layer 1" xmlns="http://www.w3.org/2000/svg" viewBox="0 0 80 72.42"><defs><style>.cls-1{fill:#2d3277;}.cls-2{fill:#ffe600;}.cls-3{fill:#fff;}</style></defs><path class="cls-1" d="M21,57.49h.75V72.42H18.93V59.3A2.49,2.49,0,0,1,21,57.49ZM36.48,60.8a3.56,3.56,0,0,0-3.2,1.76V57.49H33a2.76,2.76,0,0,0-2.51,1.39v8.48c0,3.36,1.76,5.06,5.28,5.06s5.23-2,5.23-5.7c0-3.9-1.5-5.82-4.48-5.92ZM35.62,70c-1.59,0-2.39-1.17-2.34-3.41s.85-3.26,2.4-3.26,2.29,1.07,2.4,3.26S37.22,70,35.62,70Zm7-3.41c.11-3.63,1.87-5.66,5.65-5.66h.86v2.94H47.78c-1.6,0-2.29,1-2.29,2.66v5.87H42.61Zm11,2.93a2.82,2.82,0,0,0,2,.64,2.55,2.55,0,0,0,1.55-.48,2.2,2.2,0,0,0,.8-1h2.66a4.94,4.94,0,0,1-2,2.83,5.69,5.69,0,0,1-3.2.85,6.55,6.55,0,0,1-2.35-.43,5,5,0,0,1-1.76-1.17A5.8,5.8,0,0,1,50.18,69a6.78,6.78,0,0,1-.37-2.35,6.39,6.39,0,0,1,.43-2.29,5.08,5.08,0,0,1,1.12-1.82,5.18,5.18,0,0,1,1.76-1.22,5.32,5.32,0,0,1,2.29-.43,4.92,4.92,0,0,1,4.16,2,6.13,6.13,0,0,1,1,2.08,7.35,7.35,0,0,1,.21,2.46H52.8a3.4,3.4,0,0,0,.8,2.13ZM57,63.73a2.23,2.23,0,0,0-1.65-.59,2.8,2.8,0,0,0-1.23.27,2.1,2.1,0,0,0-.75.59,2.53,2.53,0,0,0-.42.74,4.23,4.23,0,0,0-.16.75h4.9A2.67,2.67,0,0,0,57,63.73ZM24.8,57.49h2.83v2.56H24.8Zm0,3.84h2.83v11H24.8Zm51.57-9.76a2.59,2.59,0,0,1-3.84,0,3.8,3.8,0,0,1-.64-2.51,3.82,3.82,0,0,1,.64-2.45,2.59,2.59,0,0,1,3.84,0A3.72,3.72,0,0,1,77,49.06,4.09,4.09,0,0,1,76.37,51.57ZM78.61,45a5,5,0,0,0-4.16-1.76A4.78,4.78,0,0,0,70.29,45a6.65,6.65,0,0,0-1.39,4,6.09,6.09,0,0,0,1.39,4.05,5,5,0,0,0,4.16,1.71,4.88,4.88,0,0,0,4.16-1.71A6.65,6.65,0,0,0,80,49a6,6,0,0,0-1.39-4M64.74,51.57a2.13,2.13,0,0,1-1.81.85,2,2,0,0,1-1.76-.85,4.9,4.9,0,0,1-.53-2.51,4.2,4.2,0,0,1,.53-2.29,1.92,1.92,0,0,1,1.81-1,2.31,2.31,0,0,1,1.44.48,3.86,3.86,0,0,1,1,3,5,5,0,0,1-.7,2.29Zm3.31-11.63s-2.88-.32-2.88,2v3a4,4,0,0,0-1.28-1.23,3.18,3.18,0,0,0-1.76-.37A4.3,4.3,0,0,0,58.66,45a6.91,6.91,0,0,0-1.28,4.48,5.4,5.4,0,0,0,1.28,3.89,5.51,5.51,0,0,0,4.06,1.44c5.28,0,5.17-4.48,5.17-4.48ZM53.86,50.24a2.35,2.35,0,0,1-.8,2,3.36,3.36,0,0,1-1.7.53,1.22,1.22,0,0,1-1-.32,1.23,1.23,0,0,1-.38-1,1.39,1.39,0,0,1,.64-1.23,2.83,2.83,0,0,1,1.28-.37l.64-.16a5.94,5.94,0,0,1,.8-.16c.16-.05.38-.16.54-.21ZM55.3,44a6.88,6.88,0,0,0-3.2-.7,4.7,4.7,0,0,0-3.89,1.44,4.59,4.59,0,0,0-.8,2.3h2.72a2.44,2.44,0,0,1,.37-1,2,2,0,0,1,1.44-.48,3.3,3.3,0,0,1,1.39.21,1,1,0,0,1,.48,1,.83.83,0,0,1-.64.8,8.44,8.44,0,0,1-1.12.21l-1,.06a7.58,7.58,0,0,0-2.51.69A3.47,3.47,0,0,0,48,53.81a4,4,0,0,0,2.45.85c6.24.22,6.19-3.3,6.19-4v-4A2.59,2.59,0,0,0,55.3,44M41.17,45.76a2,2,0,0,1,1.6.64,2,2,0,0,1,.37,1.12h3a4,4,0,0,0-1.6-3.2,5.85,5.85,0,0,0-3.52-.86,5.07,5.07,0,0,0-4,1.55,6.23,6.23,0,0,0-1.44,4.32,5.67,5.67,0,0,0,1.28,4A5.1,5.1,0,0,0,41,54.88a5.09,5.09,0,0,0,4.16-1.82,5.67,5.67,0,0,0,1-2.5H43a2.49,2.49,0,0,1-.54,1.38,2.06,2.06,0,0,1-1.54.54,1.92,1.92,0,0,1-2-1.39,6,6,0,0,1-.32-1.92,4.18,4.18,0,0,1,.32-2,2.24,2.24,0,0,1,2.19-1.44m-6.35-2.4c-6.34,0-5.91,5.6-5.91,5.6v5.65h2.88V49.33a3.63,3.63,0,0,1,.32-1.92,2.37,2.37,0,0,1,2.29-1.12h.32a1.57,1.57,0,0,1,.48.05V43.46H35c0-.1,0-.1-.16-.1M20.53,46.29a2.41,2.41,0,0,1,1.71-.64,2.74,2.74,0,0,1,1.71.53,2,2,0,0,1,.69,1.71H19.73A3.33,3.33,0,0,1,20.53,46.29Zm3.84,5.28a.62.62,0,0,1-.37.37,2.47,2.47,0,0,1-1.6.38,2.41,2.41,0,0,1-1.55-.38,2.46,2.46,0,0,1-1.12-2.24h7.9a19.52,19.52,0,0,0-.06-2.13,5.19,5.19,0,0,0-.85-2.24,4.75,4.75,0,0,0-1.81-1.6,6.29,6.29,0,0,0-2.56-.48,4.87,4.87,0,0,0-3.84,1.55A6.07,6.07,0,0,0,17,49.12c0,2,.53,3.46,1.71,4.32a6.28,6.28,0,0,0,3.84,1.38,5.06,5.06,0,0,0,4-1.6,3.32,3.32,0,0,0,1-1.7Zm-8.64,3H13.07V48a1.76,1.76,0,0,0-1.92-2,1.91,1.91,0,0,0-2,2v6.56H6.51V48a1.76,1.76,0,0,0-1.92-2,1.86,1.86,0,0,0-1.92,2v6.56H0V48.05a4.47,4.47,0,0,1,4.53-4.8A4,4,0,0,1,7.84,44.8a4.18,4.18,0,0,1,3.31-1.55c2.88,0,4.53,2,4.53,4.8Zm49.76-38C65.49,7.47,54.13,0,40.1,0S14.72,7.47,14.72,16.59v1c0,9.7,9.92,17.54,25.38,17.54s25.39-7.84,25.39-17.54Z"/><path class="cls-2" d="M64.58,16.59c0,8.58-10.93,15.57-24.37,15.57s-24.37-7-24.37-15.57S26.77,1,40.21,1,64.58,8,64.58,16.59Z"/><path class="cls-3" d="M32.11,11.68s-.27.27-.11.48a3.05,3.05,0,0,0,2.77.48A8.16,8.16,0,0,0,37.28,11a9.34,9.34,0,0,1,2.88-1.81,3.5,3.5,0,0,1,2.08-.06,8,8,0,0,1,1.92,1.12c1.65,1.23,8.37,7.1,9.54,8.11a58.6,58.6,0,0,1,10.72-3.47,13.22,13.22,0,0,0-5.06-8c-3.84,1.6-8.59,2.46-13.23.22a12.86,12.86,0,0,0-5-1.12c-3.68.1-5.23,1.65-6.93,3.36Z"/><path class="cls-3" d="M53.44,19c-.06-.05-7.9-6.88-9.66-8.21A5,5,0,0,0,41.6,9.76a2.45,2.45,0,0,0-1.07.11,9.93,9.93,0,0,0-2.88,1.7,7.67,7.67,0,0,1-2.77,1.71,4.19,4.19,0,0,1-3-.48,1.28,1.28,0,0,1-.53-.59,1,1,0,0,1,.26-1l2.14-2.35.74-.74a19.58,19.58,0,0,0-2,.42A8.85,8.85,0,0,1,30.19,9a19.12,19.12,0,0,1-2.35-.37A37,37,0,0,1,21.6,6.35c-3,2.29-5.12,5.12-5.71,8.26l1.44.38c6.94,1.54,9.07,3.14,9.5,3.46a2.19,2.19,0,0,1,1.7-.74,2.32,2.32,0,0,1,1.87,1,2.56,2.56,0,0,1,1.65-.59,3.58,3.58,0,0,1,1,.16,2.21,2.21,0,0,1,1.38,1.28,2.51,2.51,0,0,1,1-.21,3.36,3.36,0,0,1,1.18.26A2.52,2.52,0,0,1,38,22.35h.27A2.75,2.75,0,0,1,41,25.12a2.56,2.56,0,0,1-.32,1.28,4.62,4.62,0,0,0,2.4.64c.75-.11,1-.32,1.12-.48s.16-.21,0-.32l-2-2.19s-.32-.32-.21-.42.32.05.48.16c1,.85,2.18,2.08,2.18,2.08a.91.91,0,0,0,.54.26,2.19,2.19,0,0,0,1.54-.37c.11-.11.27-.21.32-.32a1.06,1.06,0,0,0,0-1.28L44.8,21.6s-.32-.32-.22-.43.32.06.48.16c.75.59,1.76,1.66,2.72,2.62A1.83,1.83,0,0,0,50,23.89a1.53,1.53,0,0,0,.8-1.44,1.8,1.8,0,0,0-.48-1L47.2,18.35s-.32-.27-.22-.43.32,0,.48.16c1,.85,3.68,3.31,3.68,3.31a2,2,0,0,0,2.14-.06A1.31,1.31,0,0,0,54,20.21,1.53,1.53,0,0,0,53.44,19Z"/><path class="cls-3" d="M38.34,23a3.47,3.47,0,0,0-1.06.27c-.06,0,0-.22,0-.32s.69-2-.85-2.72a1.71,1.71,0,0,0-2.13.32c-.06.05-.11.05-.11,0A1.68,1.68,0,0,0,33,19a2.31,2.31,0,0,0-2.66,1,1.72,1.72,0,1,0-1.71,1.92,1.56,1.56,0,0,0,1.17-.48v.05A2.23,2.23,0,0,0,31.2,24a1.65,1.65,0,0,0,1.65-.27c.16-.1.16-.05.16.06,0,.37,0,1.22,1.23,1.7A1.46,1.46,0,0,0,36,25.17c.16-.16.21-.1.21.11A2.14,2.14,0,1,0,38.34,23Z"/><path class="cls-1" d="M53.76,18.24c-2.4-2.08-7.95-6.93-9.5-8a5.38,5.38,0,0,0-2-1.12,3.25,3.25,0,0,0-1-.16,3.53,3.53,0,0,0-1.23.21,10.89,10.89,0,0,0-2.88,1.81l0,.06a7.66,7.66,0,0,1-2.45,1.54,4.71,4.71,0,0,1-.91.11,2.39,2.39,0,0,1-1.7-.53c-.06-.06,0-.16.1-.27l2.14-2.29c1.65-1.66,3.19-3.2,6.82-3.31h.16a13.12,13.12,0,0,1,4.75,1.12,14.91,14.91,0,0,0,6.45,1.55A17,17,0,0,0,59.62,7.2l-.85-.69a15.22,15.22,0,0,1-6.24,1.38,13.72,13.72,0,0,1-6-1.44,13.42,13.42,0,0,0-5.17-1.22h-.21a8.64,8.64,0,0,0-5.87,2.08,11.61,11.61,0,0,0-2.93.53,8,8,0,0,1-2.08.37h-.8A34.21,34.21,0,0,1,22,6.13c-.32.22-.59.43-.91.64a38.67,38.67,0,0,0,8.05,2.35c.32,0,.7.05,1.07.05a9.23,9.23,0,0,0,2.35-.42c.48-.11,1-.27,1.44-.38l-.43.43-2.13,2.35a1.12,1.12,0,0,0-.32,1.17,2.1,2.1,0,0,0,.58.64,4.87,4.87,0,0,0,2.3.59,4.82,4.82,0,0,0,.9-.11,7.84,7.84,0,0,0,2.83-1.76A10.41,10.41,0,0,1,40.53,10a4.38,4.38,0,0,1,.8-.1h.21a4,4,0,0,1,2.14,1c1.76,1.33,9.6,8.16,9.65,8.21a1.67,1.67,0,0,1,.48,1.18,1.36,1.36,0,0,1-.64,1,1.9,1.9,0,0,1-1,.32,1.67,1.67,0,0,1-.91-.27s-2.72-2.45-3.68-3.3a.74.74,0,0,0-.48-.27.25.25,0,0,0-.21.11c-.16.21,0,.48.21.64l3.15,3.14a1.65,1.65,0,0,1,.42.86,1.4,1.4,0,0,1-.74,1.28,1.94,1.94,0,0,1-1.12.37,1.75,1.75,0,0,1-.91-.27l-.48-.42a26.14,26.14,0,0,0-2.29-2.14c-.16-.1-.32-.26-.48-.26a.23.23,0,0,0-.22.1c-.05.06-.1.22.06.48a.36.36,0,0,0,.16.16l2.29,2.56s.48.59,0,1.07l-.1.11-.22.21a1.81,1.81,0,0,1-1.12.37h-.32a1,1,0,0,1-.48-.21,25,25,0,0,0-2.24-2.08.61.61,0,0,0-.42-.21.43.43,0,0,0-.22.1c-.16.22.11.54.22.64l2,2.14a.45.45,0,0,1,0,.16c-.06.1-.32.32-1,.42h-.26a4.54,4.54,0,0,1-1.92-.58,3.19,3.19,0,0,0,.26-1.23,2.87,2.87,0,0,0-2.88-2.88h-.1a2.55,2.55,0,0,0-1.49-2.72,3.41,3.41,0,0,0-1.23-.27,2.91,2.91,0,0,0-.91.16A2.52,2.52,0,0,0,33,18.35,3.54,3.54,0,0,0,32,18.19a2.53,2.53,0,0,0-1.6.53,2.46,2.46,0,0,0-3.63-.21c-.59-.48-3-2-9.44-3.47a10.15,10.15,0,0,1-1.44-.43c-.05.32-.11.7-.16,1.07l1.44.32c6.56,1.44,8.75,3,9.12,3.25a2.93,2.93,0,0,0-.16,1,2.45,2.45,0,0,0,2.45,2.46,1.32,1.32,0,0,0,.48-.06,2.88,2.88,0,0,0,2.72,2.3,2.15,2.15,0,0,0,.59-.06,2.43,2.43,0,0,0,1.55,1.44,2.1,2.1,0,0,0,1,.22,1.78,1.78,0,0,0,.74-.16,2.93,2.93,0,0,0,2.67,1.81,2.79,2.79,0,0,0,2.08-.91,5.29,5.29,0,0,0,2.45.75h.37a2.25,2.25,0,0,0,1.66-.8c.05-.05.05-.11.1-.16a3.43,3.43,0,0,0,.8.11,2.45,2.45,0,0,0,1.6-.59,1.88,1.88,0,0,0,.91-1.39,1.6,1.6,0,0,0,.53.06,2.87,2.87,0,0,0,1.66-.54,2.37,2.37,0,0,0,1.17-2.08,1.6,1.6,0,0,0,.53.06,2.77,2.77,0,0,0,1.55-.48,2.27,2.27,0,0,0,1.07-1.71,2.61,2.61,0,0,0-.32-1.39,65,65,0,0,1,10.13-3.2,3.54,3.54,0,0,0-.16-1.06,52.89,52.89,0,0,0-10.61,3.41ZM38.34,27.15a2,2,0,0,1-2-1.92c0-.11,0-.32-.21-.32s-.16.05-.27.1a1.32,1.32,0,0,1-1,.43,1.38,1.38,0,0,1-.64-.16c-1.12-.48-1.17-1.23-1.12-1.55,0-.1,0-.16-.05-.21l0-.05H33s-.1,0-.21.1a1.67,1.67,0,0,1-1,.32,2,2,0,0,1-.53-.1A2,2,0,0,1,30,21.39c0-.11,0-.16-.06-.22l-.1-.1-.11.1a1.67,1.67,0,0,1-1.07.43,1.55,1.55,0,0,1,0-3.09,1.6,1.6,0,0,1,1.55,1.33l.05.43.22-.38a2.06,2.06,0,0,1,1.81-1A3.91,3.91,0,0,1,33,19a1.5,1.5,0,0,1,1.07,1.44c0,.21.16.21.16.21s.16-.05.16-.1a1.56,1.56,0,0,1,1.12-.48,1.8,1.8,0,0,1,.85.21c1.44.64.8,2.45.8,2.51-.1.32-.16.42,0,.53h.11a.58.58,0,0,0,.26-.05,2.85,2.85,0,0,1,.75-.16,2,2,0,0,1,2,2,1.91,1.91,0,0,1-1.92,2Z"/></svg>