<svg xmlns="http://www.w3.org/2000/svg" width="253.19" height="59.96" viewBox="0 0 253.19 59.96" class="w-full h-auto"><title>Outlier</title> <path fill="currentColor" d="M43.8 30.89C43.8 10 38.69 3.25 30.61 3.25S17.45 10 17.45 30.89s5 27.55 13.16 27.55S43.8 51.67 43.8 30.89zm17.45 0C61.25 46 52 60 30.61 60 9.43 60 0 46 0 30.89S9.26 1.74 30.61 1.74s30.64 13.98 30.64 29.15zM78.65 19.83v25.61c0 8.14 2.18 10.49 6.63 10.49 5 0 10-5.78 10-13v-23.1h11.83v39.5h-9.58L96 48.54h-.08C93 55.78 87.23 59.82 79.4 59.82c-8 0-12.67-4.81-12.67-16.92V19.83zM112.41 19.85c.52 0 14.33-6.57 14.41-6.72H128V20c3.66 0 7.42-.14 9.88-.23l-1.19 2.37H128v25.22c.14 6.8 2.68 8.42 6 8.51a10.57 10.57 0 002-.14 7.67 7.67 0 004-2c.06 0 .86.71.91.68a21.19 21.19 0 01-2.48 2.26 17.82 17.82 0 01-10 3.14c-7.3 0-12.25-4.54-12.25-12.22V21.43h-3.71v-1.58zM144.46 0h11.79v59.33h-11.79zM164.31 19.83h11.79v39.5h-11.79zM194.67 36.5l13-.61c-.08-10.08-1.16-15.23-6.36-15.23-4.07 0-6.39 3.84-6.64 15.84zm25.14 1.73h-25.14v.16c0 10.46 4.82 16.34 12.25 16.34a17 17 0 0012.24-5l.87.87c-5 6.16-10.39 9.4-17.86 9.4-10.28 0-20.1-5.14-20.1-21.57 0-11.06 8-19.19 19.27-19.19C215 19.2 219.81 27 219.81 38.23zM225.11 19.75h10.1l1.11 15.33h.08c0-5.27 4.57-16.36 13.39-16.36a13.71 13.71 0 013.4.32v12.81a16.67 16.67 0 00-5.81-.71c-5.59 0-10.43 3.16-10.43 7.26v20.93h-11.84z"></path> <circle fill="currentColor" cx="170.07" cy="7.27" r="7.17"></circle></svg>