<?xml version="1.0" encoding="iso-8859-1"?>
<!-- Generator: Adobe Illustrator 16.0.0, SVG Export Plug-In . SVG Version: 6.00 Build 0)  -->
<!DOCTYPE svg PUBLIC "-//W3C//DTD SVG 1.1//EN" "http://www.w3.org/Graphics/SVG/1.1/DTD/svg11.dtd">
<svg version="1.1" id="Layer_1" xmlns="http://www.w3.org/2000/svg" xmlns:xlink="http://www.w3.org/1999/xlink" x="0px" y="0px"
	 viewBox="0 0 164.67 50.31" style="enable-background:new 0 0 164.67 50.31;"
	 xml:space="preserve">
<g>
	<g>
		<g>
			<path style="fill:#8C1515;" d="M79.76,24.04c-4.12,0-4.43-3.11-4.43-4.08c0-1.12,0.29-3.11,2.92-4.08
				c2.71-0.99,3.28-1.11,5.15-1.69V13.7c0-0.9,0-1.12-0.18-1.68c-0.35-1.06-1.38-1.74-2.78-1.74c-1.39,0-2.55,0.77-3.06,1.89
				l-0.76-0.45C77.09,10,78.81,8.3,81.79,8.3c2.12,0,3.5,0.6,4.35,1.89c0.64,1.03,0.7,2.45,0.7,3.93c0,1.31-0.04,2.76-0.06,3.93
				c-0.02,0.81-0.04,1.51-0.04,1.94c0,1.07,0.17,1.9,1.06,1.9c0.37,0,0.44-0.1,0.75-0.35l0.49,0.57c-0.8,1.04-1.68,1.91-3.17,1.91
				c-1.2,0-2.04-0.58-2.32-1.54C82.88,23.17,81.67,24.04,79.76,24.04 M83.39,16.07c-2.02,0.61-2.71,0.94-3.33,1.26
				c-0.88,0.44-1.32,1.33-1.32,2.38c0,0.82,0.29,2.2,2.26,2.2c0.65,0,1.59-0.13,2.39-0.7V16.07z M49.41,23.22
				c0-1.52,0.01-2.82-0.11-4.38h0.9c0.01,0.97,0.28,1.68,0.7,2.16c0.65,0.72,2.13,1.16,3.52,1.16c2.89,0,4.23-1.09,4.23-3.44
				c0-2.01-1.24-2.85-2.97-4.01l-0.27-0.19L53.6,13.3c-2.53-1.67-3.82-3.01-3.82-5.68c0-1.31,0.5-5.58,6.85-5.58
				c1.61,0,3.71,0.17,4.98,0.41c-0.01,0.2-0.03,1.18-0.03,2c0,0.95,0,1.27,0.04,2.43h-0.77c-0.02-1.03-0.31-1.69-0.75-2.13
				c-0.61-0.61-1.96-0.89-3.39-0.89c-3.37,0-3.77,1.73-3.77,3.02c0,1.79,0.92,2.39,2.91,3.72l2.31,1.52
				c1.96,1.31,3.81,2.54,3.81,5.79c0,5.5-5.13,6.09-7.33,6.09C52.63,24.01,51.03,23.76,49.41,23.22z M90.39,9.31
				c0.77,0.06,1.93-0.02,3.06-0.21c0.96-0.17,1.31-0.3,2.02-0.66l0.3,0.18v1.21c0.76-0.57,2.3-1.46,4.4-1.46
				c2.73,0,4.52,1.28,5.03,3.6c0.15,0.58,0.2,1.96,0.2,2.71v4.43c0,2.5,0.1,3.2,0.56,3.65c0.24,0.21,0.8,0.44,1.47,0.44v0.71
				c-0.98-0.05-2.71-0.15-3.75-0.15c-1.39,0-2.96,0.07-3.8,0.17v-0.7c0.75-0.08,1.27-0.3,1.53-0.55c0.44-0.44,0.52-1.32,0.58-3.2
				c0.02-0.56,0.04-1.75,0.04-2.62c0-1.13,0-2.31-0.13-3.47c-0.22-1.96-1.26-2.88-3.21-2.88c-1.37,0-2.21,0.31-2.85,0.63v7.97
				c0,2.5,0.1,3.2,0.58,3.65c0.23,0.21,0.82,0.44,1.46,0.44v0.71c-1.25-0.06-2.76-0.15-3.73-0.15c-2.02,0-2.65,0.04-3.82,0.17v-0.72
				c0.66,0,1.29-0.24,1.65-0.65c0.46-0.52,0.49-1.82,0.49-4.4v-4.33c0-1.88-0.04-2.67-0.3-3.08c-0.21-0.31-0.73-0.57-1.77-0.55V9.31
				z M109.24,23.17c0.62,0.01,1.28-0.23,1.65-0.64c0.47-0.52,0.49-1.8,0.49-4.39v-7.52h-1.98V9.77c0.83-0.32,1.57-0.7,1.98-1.02
				c0-1.34,0.05-3.08,0.23-4.02C112.2,1.6,114.26,0,117.69,0c1.51,0,2.96,0.52,3.82,1.26l0.05,0.32l-1.51,2.09l-0.37,0
				c-0.51-1.26-1.28-1.98-2.64-1.98c-0.47,0-1.12,0.15-1.53,0.54c-0.65,0.66-0.76,1.63-0.76,3.57v2.93h3.38v1.88h-3.38v8.41
				c0,2,0.07,2.98,0.33,3.37c0.42,0.64,1.76,0.71,2.41,0.69v0.8c-1.11-0.07-2.85-0.15-4.14-0.15c-1.88,0-3.11,0.06-4.12,0.17V23.17z
				 M126.69,24.17c-4.63,0-7.4-2.89-7.4-7.71c0-3.76,2.02-8.13,7.71-8.13c4.63,0,7.39,2.88,7.39,7.71
				C134.41,19.78,132.39,24.17,126.69,24.17z M126.89,10.08c-0.9,0-1.62,0.23-2.16,0.69c-1.21,1.02-1.83,2.87-1.83,5.52
				c0,1.02,0.19,6.12,3.93,6.12c0.89,0,1.62-0.23,2.14-0.68c1.23-1.02,1.84-2.88,1.84-5.53C130.8,15.18,130.61,10.08,126.89,10.08z
				 M135.93,9.25c1.03,0.06,2.14-0.06,3.31-0.27c0.9-0.16,1.48-0.35,1.8-0.5l0.27,0.14v1.32c0.73-0.69,1.88-1.41,3.5-1.41
				c1.19,0,1.98,0.33,2.64,0.94v0.48l-1.27,2.34h-0.62c-0.4-0.71-1.16-1.37-2.53-1.37c-0.64,0-1.18,0.16-1.66,0.48v7.65
				c0,2,0.07,2.94,0.33,3.34c0.42,0.64,1.68,0.71,2.4,0.68v0.84c-1.04-0.06-2.84-0.15-4.13-0.15c-1.47,0-2.91,0.03-4.12,0.17v-0.77
				c0.85-0.04,1.32-0.28,1.65-0.65c0.47-0.53,0.5-1.77,0.5-4.35v-4.33c0-1.88-0.01-2.69-0.3-3.08c-0.25-0.34-0.8-0.54-1.78-0.55
				V9.25z M157.28,0.88c0.92,0,2.11-0.17,3.57-0.42c0.82-0.14,1.38-0.29,1.65-0.4l0.26,0.15c-0.13,1.25-0.13,4.07-0.13,6.07v12.37
				c0,1.85,0.03,2.99,0.3,3.36c0.23,0.34,0.79,0.57,1.75,0.58v0.81c-0.96,0-2.09,0.12-3.26,0.32c-0.78,0.13-1.39,0.25-1.68,0.41
				l-0.41-0.14v-1.28c-0.75,0.56-2.25,1.43-4.24,1.43c-4.16,0-6.85-2.89-6.85-7.36c0-1.49,0.29-2.9,0.81-4.09
				c1.28-2.75,3.92-4.33,7.25-4.33c1.22,0,2.31,0.15,2.96,0.29V5.42c0-1.89-0.03-2.9-0.3-3.3c-0.21-0.31-0.52-0.46-1.66-0.54V0.88z
				 M156.75,21.96c1.04,0,1.74-0.17,2.5-0.62V11.18c-0.25-0.24-1.17-1.01-3.03-1.01c-2.95,0-4.38,2.02-4.38,6.18
				C151.83,18.1,152.35,21.96,156.75,21.96z M73.8,22.39c-0.46,0.56-1.64,1.73-4.11,1.73c-2.34,0-3.65-0.83-4.23-2.71
				c-0.23-0.75-0.23-2.21-0.23-3.09c0-2.43,0.03-4.37,0.05-6.62l0.01-1.06h-2v-0.59C64.1,9.73,64.65,9.4,65.19,9
				c1.18-0.91,1.93-2.05,2.83-3.65h0.67v3.41h5.15v1.88h-5.15v7.96c0,2.38,0.43,3.74,2.68,3.74c1.05,0,1.74-0.34,2.18-0.57
				L73.8,22.39z"/>
		</g>
		<path style="fill:#4D4F53;" d="M49.51,32.31h2.34v5.3h5.34v-5.3h2.34v13.18h-2.34v-5.84h-5.34v5.84h-2.34V32.31z"/>
		<path style="fill:#4D4F53;" d="M62.13,32.31h7.94v1.97h-5.6v3.37h4.74v1.98h-4.74v3.89h5.8v1.97h-8.14V32.31z"/>
		<path style="fill:#4D4F53;" d="M79.78,41.92h-4.43l-1.03,3.57h-2.38l4.29-13.18h2.74l4.29,13.18h-2.46L79.78,41.92z M79.26,40.09
			l-0.46-1.61c-0.42-1.39-0.81-2.9-1.19-4.35h-0.08c-0.36,1.47-0.75,2.96-1.17,4.35l-0.46,1.61H79.26z"/>
		<path style="fill:#4D4F53;" d="M85.02,32.31h2.33v11.2h5.48v1.97h-7.82V32.31z"/>
		<path style="fill:#4D4F53;" d="M95.58,34.29h-3.81v-1.97h9.95v1.97h-3.81v11.2h-2.34V34.29z"/>
		<path style="fill:#4D4F53;" d="M103.71,32.31h2.34v5.3h5.34v-5.3h2.34v13.18h-2.34v-5.84h-5.34v5.84h-2.34V32.31z"/>
		<path style="fill:#4D4F53;" d="M126.79,32.07c1.59,0,2.92,0.79,3.75,1.67l-1.31,1.45c-0.66-0.66-1.41-1.09-2.42-1.09
			c-2.17,0-3.71,1.81-3.71,4.78c0,3,1.41,4.82,3.63,4.82c1.17,0,2.02-0.48,2.76-1.31l1.31,1.43c-1.07,1.23-2.46,1.91-4.11,1.91
			c-3.37,0-5.98-2.42-5.98-6.79C120.71,34.63,123.41,32.07,126.79,32.07z"/>
		<path style="fill:#4D4F53;" d="M139.29,41.92h-4.43l-1.03,3.57h-2.38l4.29-13.18h2.74l4.29,13.18h-2.46L139.29,41.92z
			 M138.76,40.09l-0.46-1.61c-0.42-1.39-0.8-2.9-1.19-4.35h-0.08c-0.36,1.47-0.74,2.96-1.17,4.35l-0.46,1.61H138.76z"/>
		<path style="fill:#4D4F53;" d="M151.26,45.49l-2.84-5.16h-2.01v5.16h-2.34V32.31h4.45c2.74,0,4.84,0.97,4.84,3.91
			c0,2.02-1.05,3.22-2.62,3.77l3.14,5.5H151.26z M146.41,38.48h1.87c1.79,0,2.78-0.77,2.78-2.26c0-1.51-0.99-2.04-2.78-2.04h-1.87
			V38.48z"/>
		<path style="fill:#4D4F53;" d="M155.67,32.31h7.94v1.97H158v3.37h4.74v1.98H158v3.89h5.8v1.97h-8.14V32.31z"/>
	</g>
	<path style="fill:#8C1515;" d="M20.32,49.74C46.8,35.29,40.49,6.5,38.66,2.24H1.98C0.16,6.5-6.16,35.29,20.32,49.74"/>
	<path style="fill:#FFFFFF;" d="M10.3,5.98l0.01,0.57c0.38-0.31,0.93-0.55,1.36-0.64c-0.24,1.09-0.77,1.36-1.35,1.46l-0.02,0.91
		c0.47-0.38,1.19-0.89,1.73-1.01c-0.31,1.38-0.98,1.88-1.71,1.99l0,0.9c0.59-0.38,1.52-1.05,2.2-1.16c-0.39,1.4-1.26,1.95-2.2,2.04
		l0,0.83c0.59-0.38,1.51-0.98,2.19-1.09c-0.38,1.35-1.29,2.17-2.19,2.3l0,0.7c0.59-0.38,1.51-0.98,2.19-1.08
		c-0.36,1.42-1.26,2.18-2.2,2.26v0.57c0.71-0.42,1.87-1.15,2.69-1.27c-0.47,1.52-1.57,2.35-2.68,2.45v0.66
		c0.38-0.3,1.18-0.63,1.61-0.72c-0.23,1.04-1.07,1.4-1.62,1.53l0,1.23c0.13,0,0.26-0.03,0.39-0.04c-0.04-0.43,0.21-0.86,0.76-1.22
		c0.03,0.33-0.16,0.8-0.27,1.12c0.3-0.07,0.59-0.15,0.89-0.28c-0.16-0.62,0.05-1.47,0.76-2.19c0.13,0.48,0.01,1.26-0.05,1.78
		c0.31-0.19,0.63-0.4,0.93-0.67c-0.34-0.59-0.28-1.5,0.39-2.43c0.2,0.45,0.21,1.32,0.21,1.85c0.27-0.29,0.56-0.61,0.82-0.96
		c-0.47-0.57-0.49-1.13,0.07-2.24c0.2,0.45,0.38,1.13,0.38,1.66c0.24-0.31,0.42-0.58,0.62-0.95c-0.12-0.29-0.06-0.51,0.08-0.69
		c0.21-0.26,0.52-0.48,0.79-0.31c0.39,0.18,0.19,0.6,0.06,0.91c-0.1,0.22-0.26,0.37-0.55,0.36c-0.2,0.36-0.48,0.74-0.72,1.05
		c0.56,0.18,0.96,0.31,1.34,0.7c-0.83,0.34-1.33,0.26-1.74-0.08c-0.27,0.36-0.66,0.74-0.94,1.04c0.55,0.17,0.9,0.32,1.35,0.77
		c-0.91,0.38-1.58,0.26-1.98-0.17c-0.31,0.27-0.62,0.55-0.94,0.74c0.54,0.27,0.92,0.56,1.25,1.01c-1.03,0.24-1.71-0.06-2.01-0.63
		c-0.3,0.12-0.59,0.23-0.9,0.29c0.29,0.25,0.5,0.45,0.64,0.78c-0.71-0.02-1.11-0.18-1.21-0.62c-0.14,0.01-0.29,0.11-0.43,0.11v1.38
		L9.44,21.1v-1.01C9.35,20.08,9.14,20,9.06,19.99c-0.13,0.41-0.44,0.57-1.12,0.58c0.15-0.34,0.23-0.57,0.57-0.75
		c-0.31-0.08-0.61-0.23-0.92-0.37c-0.27,0.64-0.88,0.91-1.97,0.66c0.32-0.45,0.72-0.85,1.27-1.03c-0.28-0.17-0.54-0.35-0.81-0.62
		c-0.4,0.45-1.07,0.6-2,0.22c0.38-0.39,0.76-0.69,1.33-0.8c-0.29-0.29-0.56-0.64-0.83-0.99c-0.41,0.36-1.04,0.48-1.89,0.12
		c0.38-0.39,0.81-0.8,1.36-0.79c-0.17-0.24-0.31-0.51-0.49-0.78c-0.18,0-0.33,0-0.52-0.23c-0.2-0.26-0.39-0.81-0.06-0.99
		c0.21-0.18,0.69,0.08,0.85,0.37c0.15,0.26,0.09,0.42,0.04,0.61c0.17,0.27,0.36,0.53,0.53,0.77c-0.12-0.76,0.1-1.4,0.29-1.85
		c0.68,0.95,0.56,1.77,0.18,2.35c0.28,0.35,0.52,0.61,0.8,0.9c-0.08-0.54-0.02-1.34,0.18-1.79c0.64,0.88,0.72,1.78,0.43,2.37
		c0.27,0.23,0.52,0.44,0.78,0.61c-0.14-0.5-0.21-1.34-0.08-1.82c0.72,0.73,0.94,1.56,0.78,2.18c0.31,0.14,0.6,0.26,0.91,0.33
		c-0.15-0.3-0.29-0.81-0.26-1.13c0.54,0.34,0.68,0.74,0.65,1.16c0.09,0.01,0.32,0.11,0.4,0.12l-0.02-1.21
		c-0.53-0.14-1.33-0.44-1.6-1.47c0.5,0.12,1.14,0.24,1.6,0.65v-0.64c-1.08-0.09-2.16-0.85-2.69-2.38c0.93,0.16,1.83,0.61,2.69,1.17
		l0-0.56c-0.94-0.07-1.83-0.94-2.22-2.18c0.78,0.15,1.5,0.5,2.22,1.01v-0.71c-0.88-0.1-1.78-0.84-2.22-2.22
		c0.78,0.15,1.5,0.48,2.22,0.99v-0.79C8.55,11,7.69,10.49,7.24,9.08c0.78,0.15,1.5,0.55,2.22,1.07V9.27
		C8.75,9.18,8.07,8.74,7.71,7.35C8.34,7.5,8.89,7.76,9.46,8.28l0-0.92C8.91,7.26,8.4,7.04,8.12,5.97C8.5,6.05,8.96,6.07,9.47,6.53
		L9.46,5.98C9.04,5.36,9.13,5.08,9.18,4.59c0.05-0.45,0.21-0.78,0.7-0.8c0.48,0.02,0.65,0.35,0.7,0.8
		C10.62,5.08,10.71,5.36,10.3,5.98"/>
	<polyline style="fill:#FFFFFF;" points="30.4,10.53 29.48,10.28 28.98,10.03 28.89,10.15 29.41,10.39 29.92,11.21 29.89,10.63 
		30.4,10.53 	"/>
	<path style="fill:#FFFFFF;" d="M30.73,17.31c0.28-3.48,0.79-4.42,1.65-5.13l0.13-0.11l-0.35-2.31l-0.29,0.05
		c-0.39,0.06-0.75,0.36-1.03,0.68l0-1.71l-2.58-1.53l0,1.29c-0.2-0.19-0.37-0.33-0.45-0.39c-0.26-0.19-0.49-0.28-0.73-0.28
		c-0.14,0-0.26,0.03-0.37,0.06C26.51,7.97,26.39,8,26.12,7.89c-1.17-0.24-2.08,0.03-2.58,0.73c-0.47,0.67-0.55,1.69-0.2,2.68
		c0.22,0.63,0.63,1.36,1.22,2.16c0.24,0.32,2.29,2.49,2.75,2.96c0.3,0.31,0.62,0.61,0.95,0.91l0,0.79l-0.52-0.35l-0.69,1.59
		l0.22,0.13c0.48,0.3,0.97,1.12,1.32,5.46c-1.25,0.52-2.83,1.99-2.88,3.5c-0.02,0.72,0.32,1.73,2.11,2.43
		c0.34,0.14,0.71,0.28,1.08,0.43c0.02,0.83,0.04,1.71,0.06,2.66c-0.36,0.16-0.95,0.53-1.06,1.05c-0.1,0.47,0.19,0.92,0.86,1.35
		c0.08,0.05,0.16,0.08,0.24,0.11c0,0.26,0,0.54,0.01,0.82c-0.28,0.14-0.43,0.24-0.65,0.49c-0.12,0.14-0.23,0.28-0.17,0.42
		c0.02,0.04,0.07,0.12,0.21,0.12c0.09,0,0.23-0.04,0.48-0.14c0.07-0.02,0.12-0.05,0.17-0.06c0.13,0.31,0.41,0.51,0.73,0.51
		c0.35,0,0.63-0.23,0.71-0.58l0.01-0.03v-0.03c0-0.12,0-0.23,0-0.35c0.25-0.17,0.39-0.42,0.41-0.73c0.01-0.35-0.15-0.69-0.42-0.94
		c0-0.39,0-0.76-0.01-1.14c1.14-0.27,2.32-1.01,2.43-2c0.07-0.62-0.26-1.52-2.22-2.31c-0.08-0.03-0.15-0.06-0.22-0.09
		c0-1.65,0-3.15,0.01-4.51c2.03-1.03,3.42-2,3.59-3.29C34.24,21.28,33.14,19.69,30.73,17.31z M31.67,10.51l0.2,1.32
		c-0.86,0.76-1.38,1.76-1.68,4.95c-0.41-0.4-0.86-0.82-1.34-1.27l-0.01-5.15c0.05-0.02,0.1-0.04,0.14-0.07l0.37,0.18l0.5,0.8
		L30,11.21l-0.03-0.51l0.27-0.05l0,0.78l0.56,0.13C30.94,11.27,31.31,10.75,31.67,10.51z M30.24,9.11l0,1.29l-0.72-0.19l-0.37-0.19
		c0.04-0.24-0.1-0.53-0.31-0.82l0-0.92L30.24,9.11z M27.68,14.44c-3.18-2.88-3.31-4.19-3.11-4.72c0.24-0.61,1.05-0.63,1.22-0.59
		c0.1,0.02,0.1,0.04,0.14,0.17c0.05,0.21,0.12,0.51,0.73,0.71c0.68,0.22,1.2,0.35,1.59,0.39l0,4.57
		C28.06,14.79,27.88,14.62,27.68,14.44z M27.32,28.49c-0.05-0.4,0.38-0.92,1.4-1.7c0.05,0.87,0.09,1.84,0.13,2.93
		C27.95,29.3,27.37,28.9,27.32,28.49z M29.88,35.59c-0.1-0.05-0.22-0.13-0.31-0.23c-0.02-1.39-0.05-2.65-0.08-3.81
		c0.12,0.05,0.25,0.11,0.37,0.16C29.87,32.93,29.87,34.22,29.88,35.59z M29.6,37.92c0-0.44-0.01-0.87-0.01-1.28
		c0.13,0.03,0.23,0.08,0.3,0.15c0,0.38,0,0.76,0.01,1.15C29.86,38.06,29.69,38.09,29.6,37.92z M31.47,32.9
		c-0.01,0.13-0.16,0.38-1.01,0.66c0-0.53,0-1.05-0.01-1.56C31.06,32.33,31.48,32.64,31.47,32.9z M29.45,30
		c-0.31-9.08-0.99-10.38-1.65-10.87L28,18.66l0.85,0.58l0-1.37c0.1,0.09,0.21,0.19,0.31,0.28c0.3,0.27,0.6,0.54,0.88,0.8
		c-0.13,2.58-0.18,6.17-0.18,11.24C29.72,30.12,29.58,30.06,29.45,30z M32.31,22.4c-0.11,0.65-0.71,1.23-1.83,1.76
		c0.02-1.85,0.06-3.4,0.12-4.69C31.68,20.52,32.45,21.51,32.31,22.4z"/>
	<g>
		<path style="fill:#8C1515;" d="M26.88,9.23c-0.05-0.03-0.11-0.04-0.16-0.04c-0.09,0-0.17,0.04-0.21,0.11
			c-0.06,0.12,0,0.27,0.15,0.35c0.05,0.03,0.11,0.04,0.17,0.04c0.09,0,0.17-0.04,0.21-0.12C27.08,9.46,27.02,9.31,26.88,9.23z"/>
		<path style="fill:#8C1515;" d="M27.39,8.33c-0.06-0.06-0.14-0.09-0.22-0.09c-0.06,0-0.12,0.02-0.15,0.06
			c-0.04,0.04-0.06,0.09-0.06,0.15c0,0.08,0.04,0.16,0.11,0.22c0.06,0.06,0.14,0.09,0.22,0.09c0.06,0,0.12-0.02,0.16-0.07
			c0.04-0.04,0.06-0.1,0.06-0.15C27.5,8.47,27.46,8.39,27.39,8.33z"/>
	</g>
	<path style="fill:#FFFFFF;" d="M15.26,30.87l0-4.32H7.59v7.66h2.37v4.32h7.66v-7.67H15.26z M12.99,27.53h1.25v3.21h-1.25V27.53z
		 M14.27,34.21v0.97H13.3v-0.97H14.27z M8.74,27.53h3.21v1.25H8.74V27.53z M9.96,33.24H8.7v-3.2h1.25V33.24z M10.93,29.89h0.97v0.98
		h-0.97V29.89z M11.04,31.99h3.21v1.25h-3.21V31.99z M12.32,37.42h-1.25v-3.21h1.25V37.42z M16.47,37.39h-3.21v-1.25h3.21V37.39z
		 M16.5,35.16h-1.25v-3.21h1.25V35.16z"/>
	<g>
		<g>
			<polygon style="fill:#FFFFFF;" points="20.72,50.31 19.92,50.31 19.92,23.17 0.21,23.17 0.21,22.37 19.92,22.37 19.92,2 20.72,2 
							"/>
		</g>
	</g>
</g>
<g>
</g>
<g>
</g>
<g>
</g>
<g>
</g>
<g>
</g>
<g>
</g>
</svg>