<svg id="Layer_1" data-name="Layer 1" xmlns="http://www.w3.org/2000/svg" viewBox="0 0 20.09 3.06"><defs><style>.cls-1{fill:#696566;}</style></defs><path class="cls-1" d="M8.62,2.83,7.74.38a.53.53,0,0,1,0-.12A.21.21,0,0,1,7.93.05a.23.23,0,0,1,.22.18l.73,2.11L9.61.23A.23.23,0,0,1,9.83.05h0a.23.23,0,0,1,.22.18l.73,2.11L11.54.22a.22.22,0,0,1,.21-.17A.21.21,0,0,1,12,.26a.45.45,0,0,1,0,.11l-.88,2.46a.26.26,0,0,1-.24.19h0a.23.23,0,0,1-.24-.19L9.84.75,9.11,2.83A.23.23,0,0,1,8.87,3h0a.26.26,0,0,1-.24-.19"/><path class="cls-1" d="M15,.27a.22.22,0,1,1,.44,0v.5a1.17,1.17,0,0,1,1-.71.21.21,0,0,1,.22.22.22.22,0,0,1-.19.22,1.17,1.17,0,0,0-1,1.32v1a.22.22,0,0,1-.44,0V.27Z"/><path class="cls-1" d="M18.07,3.06a1.43,1.43,0,0,1-1.42-1.5h0A1.41,1.41,0,0,1,18,.06a1.34,1.34,0,0,1,1.32,1.45.2.2,0,0,1-.2.2H17.08a1,1,0,0,0,1,1,1.16,1.16,0,0,0,.82-.33A.18.18,0,0,1,19,2.3a.18.18,0,0,1,.19.18.17.17,0,0,1-.07.14,1.42,1.42,0,0,1-1.07.44m.84-1.67a.93.93,0,0,0-.9-1,1,1,0,0,0-.93,1Z"/><path class="cls-1" d="M12,2.16h0c0-.61.51-.94,1.24-.94a2.84,2.84,0,0,1,.89.13v-.1c0-.52-.32-.79-.86-.79a1.45,1.45,0,0,0-.68.13l-.08,0A.2.2,0,0,1,12.3.41a.18.18,0,0,1,.12-.18,2,2,0,0,1,.87-.16,1.22,1.22,0,0,1,.93.32,1.1,1.1,0,0,1,.3.84v1.6a.21.21,0,0,1-.21.21.19.19,0,0,1-.2-.2V2.56a1.25,1.25,0,0,1-1,.5A1,1,0,0,1,12,2.16m2.13-.22V1.66a2.71,2.71,0,0,0-.85-.13c-.54,0-.84.24-.84.6h0c0,.37.33.58.73.58a.87.87,0,0,0,1-.78"/><path class="cls-1" d="M.79.24A.41.41,0,0,0,.24,0,.4.4,0,0,0,0,.59l.92,2c.14.32.3.48.58.48s.44-.18.59-.48c0,0,.8-1.74.8-1.76A.12.12,0,0,1,3.05.75a.13.13,0,0,1,.13.13v1.7a.43.43,0,0,0,.42.48A.43.43,0,0,0,4,2.58V1.19A.44.44,0,0,1,4.49.74a.42.42,0,0,1,.44.45V2.58a.43.43,0,0,0,.42.48.44.44,0,0,0,.44-.48V1.19A.43.43,0,0,1,6.24.74a.42.42,0,0,1,.44.45V2.58a.43.43,0,1,0,.86,0V1a1,1,0,0,0-1-1,1.31,1.31,0,0,0-.91.39A1,1,0,0,0,4.7,0a1.44,1.44,0,0,0-.86.39A1.06,1.06,0,0,0,3.06,0a1,1,0,0,0-.93.63L1.54,2Z"/><path class="cls-1" d="M19.37.42h0a.36.36,0,1,1,.72,0h0a.36.36,0,1,1-.72,0m.65,0h0a.3.3,0,0,0-.29-.3.29.29,0,0,0-.29.3h0a.28.28,0,0,0,.29.29A.29.29,0,0,0,20,.42"/><path class="cls-1" d="M19.6.27a0,0,0,0,1,0,0h.12a.15.15,0,0,1,.1,0,.11.11,0,0,1,0,.08h0a.1.1,0,0,1-.07.1l.05.07a0,0,0,0,1,0,0,0,0,0,0,1,0,0,.05.05,0,0,1,0,0L19.74.47h-.07V.54s0,0,0,0a0,0,0,0,1,0,0V.27Zm.15.13s.06,0,.06-.05h0s0,0-.06,0h-.08V.4Z"/></svg>